<?xml version="1.0" standalone="no"?>
<!DOCTYPE svg PUBLIC "-//W3C//DTD SVG 20010904//EN"
 "http://www.w3.org/TR/2001/REC-SVG-20010904/DTD/svg10.dtd">
<svg version="1.0" xmlns="http://www.w3.org/2000/svg"
 width="1024.000000pt" height="1024.000000pt" viewBox="0 0 1024.000000 1024.000000"
 preserveAspectRatio="xMidYMid meet">
<metadata>
Created by potrace 1.11, written by Peter Selinger 2001-2013
</metadata>
<g transform="translate(0.000000,1024.000000) scale(0.100000,-0.100000)"
fill="#000000" stroke="none">
<path d="M493 10106 c-176 -43 -325 -197 -362 -374 -16 -76 -16 -9149 0 -9224
38 -184 193 -339 377 -377 75 -16 9149 -16 9224 0 184 38 339 193 377 377 16
75 16 9149 0 9224 -38 183 -194 339 -377 377 -82 17 -9168 14 -9239 -3z m5330
-1370 c621 -69 1110 -238 1567 -541 350 -232 648 -528 918 -915 l74 -105
-1609 -6 c-1770 -6 -1676 -2 -1937 -68 -531 -134 -1029 -549 -1294 -1077 -194
-387 -253 -880 -161 -1339 85 -424 328 -817 694 -1123 254 -213 572 -361 905
-423 l125 -24 1638 -3 c900 -1 1637 -6 1637 -10 0 -10 -164 -237 -243 -337
-156 -195 -357 -397 -547 -550 -491 -395 -1065 -629 -1740 -711 -181 -22 -640
-30 -823 -15 -919 77 -1673 438 -2320 1111 -424 440 -718 946 -868 1490 -228
829 -170 1755 158 2499 349 794 1041 1496 1828 1854 371 169 754 266 1220 307
143 12 615 4 778 -14z m2727 -3621 l0 -1215 -1625 0 c-1091 0 -1657 4 -1722
11 -346 38 -620 193 -826 468 -156 207 -230 414 -243 681 -8 150 11 298 56
441 114 363 423 673 775 778 170 51 113 49 1908 50 l1677 1 0 -1215z"/>
</g>
</svg>
